
<svg width="128" height="128" viewBox="0 0 128 128" fill="none" xmlns="http://www.w3.org/2000/svg">
  <rect width="128" height="128" rx="24" fill="#000000"/>
  <path d="M64 42C55.1634 42 48 49.1634 48 58V67H45C42.7909 67 41 68.7909 41 71V97C41 99.2091 42.7909 101 45 101H83C85.2091 101 87 99.2091 87 97V71C87 68.7909 85.2091 67 83 67H80V58C80 49.1634 72.8366 42 64 42Z" fill="#FF3B30"/>
  <path d="M64 37C64 35.3431 65.3431 34 67 34H67.01C68.667 34 70.01 35.3431 70.01 37V37.01C70.01 38.667 68.667 40.01 67.01 40.01H67C65.3431 40.01 64 38.667 64 37.01V37Z" fill="#FF3B30"/>
  <path d="M58 67H70V58C70 54.6863 67.3137 52 64 52C60.6863 52 58 54.6863 58 58V67Z" fill="#000000"/>
</svg>
