
<svg width="128" height="128" viewBox="0 0 128 128" fill="none" xmlns="http://www.w3.org/2000/svg">
  <rect width="128" height="128" rx="64" fill="#534BB1"/>
  <path d="M110.584 64.9142H99.142C99.142 41.7651 80.173 23 56.7724 23C33.6612 23 14.8545 41.3057 14.4068 64.0583C13.936 87.577 36.9199 107 60.7046 107H65.1211C86.1745 107 110.584 91.7667 110.584 64.9142Z" fill="url(#paint0_linear_399_65)"/>
  <path d="M96.8622 64.4587H108.305C108.305 78.4322 96.8622 92.6848 74.4096 92.6848C48.5268 92.6848 31.6706 78.4322 30.5185 68.1526C30.0059 63.6571 34.3739 60.0551 38.9535 60.0551H52.0012C72.1039 60.0551 77.0548 50.1655 82.3561 43.1192C84.1913 40.5329 88.9485 41.2351 89.2518 44.4835C90.1345 53.1018 87.8249 64.4587 96.8622 64.4587Z" fill="white"/>
  <defs>
    <linearGradient id="paint0_linear_399_65" x1="63.9533" y1="23" x2="63.9533" y2="107" gradientUnits="userSpaceOnUse">
      <stop stop-color="#534BB1"/>
      <stop offset="1" stop-color="#551BF9"/>
    </linearGradient>
  </defs>
</svg>
