
<svg width="128" height="128" viewBox="0 0 128 128" fill="none" xmlns="http://www.w3.org/2000/svg">
  <rect width="128" height="128" rx="64" fill="#FC9A53"/>
  <path d="M34.0928 35.6654C48.3026 21.4556 71.2937 21.4556 85.5035 35.6654L87.7485 37.9103C88.9421 39.104 88.9421 41.0362 87.7485 42.2299L81.6031 48.3752C81.0063 48.9721 80.0402 48.9721 79.4434 48.3752L76.1999 45.1318C66.962 35.8939 52.6343 35.8939 43.3964 45.1318L39.8251 48.7031C39.2283 49.2999 38.2621 49.2999 37.6653 48.7031L31.5199 42.5577C30.3263 41.3641 30.3263 39.4318 31.5199 38.2382L34.0928 35.6654Z" fill="white"/>
  <path d="M85.5034 92.3181C71.2936 106.528 48.3025 106.528 34.0927 92.3181L31.8477 90.0732C30.6541 88.8796 30.6541 86.9473 31.8477 85.7537L37.9931 79.6083C38.5899 79.0115 39.556 79.0115 40.1528 79.6083L43.3963 82.8518C52.6342 92.0897 66.9619 92.0897 76.1998 82.8518L79.7711 79.2805C80.3679 78.6837 81.3341 78.6837 81.9309 79.2805L88.0762 85.4259C89.2698 86.6195 89.2698 88.5517 88.0762 89.7454L85.5034 92.3181Z" fill="white"/>
  <path d="M31.5199 71.3559C30.3263 70.1623 30.3263 68.23 31.5199 67.0364L37.6653 60.891C38.2621 60.2942 39.2283 60.2942 39.8251 60.891L46.0492 67.1151C46.646 67.7119 47.6122 67.7119 48.209 67.1151L54.4331 60.891C55.0299 60.2942 55.9961 60.2942 56.5929 60.891L62.817 67.1151C63.4138 67.7119 64.38 67.7119 64.9768 67.1151L71.2009 60.891C71.7977 60.2942 72.7639 60.2942 73.3607 60.891L79.5848 67.1151C80.1816 67.7119 81.1478 67.7119 81.7446 67.1151L88.0762 60.7834C89.2698 59.5898 91.2021 59.5898 92.3957 60.7834L98.541 66.9288C99.7347 68.1224 99.7347 70.0547 98.541 71.2483L81.7446 88.0447C81.1478 88.6415 80.1816 88.6415 79.5848 88.0447L73.3607 81.8206C72.7639 81.2238 71.7977 81.2238 71.2009 81.8206L64.9768 88.0447C64.38 88.6415 63.4138 88.6415 62.817 88.0447L56.5929 81.8206C55.9961 81.2238 55.0299 81.2238 54.4331 81.8206L48.209 88.0447C47.6122 88.6415 46.646 88.6415 46.0492 88.0447L39.8251 81.8206C39.2283 81.2238 38.2621 81.2238 37.6653 81.8206L31.5199 87.966C30.3263 89.1596 28.394 89.1596 27.2004 87.966L31.5199 71.3559Z" fill="white"/>
</svg>
